<svg xmlns="http://www.w3.org/2000/svg" viewBox="0 0 841.9 595.3"><g fill="#61dafb"><circle cx="420.9" cy="296.5" r="45.7"/><path d="M520.5 78.1c-18.3-10.6-53.4-14.8-99.6-12.5-44.1 2.2-93.1 10.4-141.2 23.9-61.5 17.1-111.1 40.2-139 63.7-27.4 23.1-34.4 44.7-16.8 55.4 18.3 10.6 53.4 14.8 99.6 12.5 44.1-2.2 93.1-10.4 141.2-23.9 61.5-17.1 111.1-40.2 139-63.7 27.4-23.1 34.4-44.7 16.8-55.4z"/><path d="M320.9 78.1c18.3-10.6 53.4-14.8 99.6-12.5 44.1 2.2 93.1 10.4 141.2 23.9 61.5 17.1 111.1 40.2 139 63.7 27.4 23.1 34.4 44.7 16.8 55.4-18.3 10.6-53.4 14.8-99.6 12.5-44.1-2.2-93.1-10.4-141.2-23.9-61.5-17.1-111.1-40.2-139-63.7-27.4-23.1-34.4-44.7-16.8-55.4z"/><path d="M420.9 545.5c-21.1 0-41.8-28.7-56.6-78.7-13.6-46.2-21.5-104.3-22.1-164.6-.6-76.6 10.2-146 28.8-195.8 18.2-48.7 41.6-76.3 64-76.3 21.1 0 41.8 28.7 56.6 78.7 13.6 46.2 21.5 104.3 22.1 164.6.6 76.6-10.2 146-28.8 195.8-18.2 48.7-41.6 76.3-64 76.3z"/></g></svg>